<?xml version="1.0" standalone="no"?>
<!DOCTYPE svg PUBLIC "-//W3C//DTD SVG 20010904//EN"
 "http://www.w3.org/TR/2001/REC-SVG-20010904/DTD/svg10.dtd">
<svg version="1.0" xmlns="http://www.w3.org/2000/svg"
 width="1254.000000pt" height="1254.000000pt" viewBox="0 0 1254.000000 1254.000000"
 preserveAspectRatio="xMidYMid meet">

<g transform="translate(0.000000,1254.000000) scale(0.100000,-0.100000)"
fill="#000000" stroke="none">
<path d="M5735 10444 c-592 -34 -1096 -182 -1590 -467 -538 -309 -1030 -831
-1315 -1393 -334 -658 -453 -1375 -350 -2110 85 -605 331 -1169 729 -1674 95
-121 387 -413 511 -512 435 -346 951 -590 1465 -692 222 -44 350 -57 607 -63
563 -13 1025 82 1528 312 127 58 339 174 432 237 31 21 61 38 65 38 5 0 38
-30 73 -68 113 -118 998 -1021 1164 -1188 145 -145 169 -165 246 -203 154 -76
311 -88 464 -37 95 32 167 78 239 150 148 150 202 398 132 605 -16 47 -45 108
-64 137 -20 29 -290 310 -601 626 -311 315 -619 629 -686 698 l-121 125 59 85
c225 326 420 789 507 1205 58 275 66 369 66 735 0 356 -4 401 -61 691 -102
529 -351 1065 -689 1484 -516 639 -1200 1054 -2011 1219 -212 43 -593 72 -799
60z m510 -875 c398 -56 756 -200 1112 -447 600 -417 1014 -1119 1093 -1857 16
-147 13 -460 -5 -596 -43 -328 -124 -590 -273 -883 -476 -936 -1417 -1484
-2447 -1425 -631 37 -1196 291 -1651 744 -318 317 -529 662 -667 1092 -84 261
-120 497 -120 788 0 1042 621 1986 1579 2401 274 119 550 183 899 208 99 7
343 -6 480 -25z"/>
<path d="M6135 8246 c-62 -28 -82 -63 -141 -246 -173 -544 -301 -943 -344
-1075 -27 -82 -83 -260 -125 -395 -42 -135 -106 -337 -142 -450 -73 -229 -78
-277 -33 -340 41 -58 137 -86 207 -59 67 25 89 62 147 243 30 94 125 394 212
666 86 272 180 569 209 660 30 91 99 309 156 485 64 203 101 334 100 359 -4
118 -137 200 -246 152z"/>
<path d="M4845 7848 c-41 -15 -71 -43 -469 -437 -202 -201 -355 -360 -362
-378 -18 -41 -18 -105 0 -146 15 -38 759 -773 808 -799 110 -60 259 28 258
153 -1 73 -28 106 -345 416 l-309 302 309 303 c317 312 345 345 345 418 0 41
-29 108 -56 132 -48 43 -120 57 -179 36z"/>
<path d="M6737 7846 c-50 -18 -76 -42 -98 -91 -23 -49 -24 -94 -4 -141 9 -23
126 -145 327 -345 l313 -309 -317 -312 c-342 -339 -347 -344 -333 -434 7 -49
49 -105 96 -130 40 -20 127 -18 164 5 42 26 773 742 798 781 25 40 28 131 5
175 -24 45 -773 777 -816 797 -44 21 -84 22 -135 4z"/>
</g>
</svg>
